# xmcd
#
# Track frame offsets:
#	150
#	15621
#	33129
#	59293
#	77708
#	94220
#	116778
#	134821
#	153372
#	169921
#	191956
#	205964
#	231240
#
# Disc length: 3362 seconds
# Revision: 0
# Processed by: cddbd v1.5.2PL0 Copyright (c) Steve Scherf et al.
# Submitted via: dBpowerAMP V12.0
#
DISCID=b60d200d
DTITLE=Infamous Stringdusters - Rise Sun
DYEAR=2019
DGENRE=Bluegrass
TTITLE0=Rise Sun
TTITLE1=Another Night
TTITLE2=Planets
TTITLE3=Long Time Going
TTITLE4=Thunder
TTITLE5=Comin Again
TTITLE6=Somewhere In Between
TTITLE7=Carry Me Away
TTITLE8=Last of the Lucky Ones
TTITLE9=If Youre Gonna Love Someone
TTITLE10=Wake the Dead
TTITLE11=Cloud Valley
TTITLE12=Truth 4nd Love
EXTD=
EXTT0=
EXTT1=
EXTT2=
EXTT3=
EXTT4=
EXTT5=
EXTT6=
EXTT7=
EXTT8=
EXTT9=
EXTT10=
EXTT11=
EXTT12=
PLAYORDER=
